<svg width="73" height="184" viewBox="0 0 73 184" fill="none" xmlns="http://www.w3.org/2000/svg">
<path d="M66.1143 173.442C60.9174 179.593 47.7766 189.049 36.7889 177.67C25.8011 166.292 40.6247 144.995 49.4099 135.769C53.7407 133.206 62.7734 128.849 64.2582 131.924C66.1143 135.769 67.2279 143.841 52.0084 150.761C42.2333 154.861 21.1239 159.218 14.8876 143.841C12.0417 137.178 11.5468 121.699 32.3344 113.088L58.3189 101.939M58.3189 101.939C68.2178 101.552 82.4474 106.161 60.175 127.696C53.122 131.027 36.0464 137.768 24.1678 138.075C17.3623 136.666 4.27104 129.695 6.34981 113.088C6.10233 109.756 10.7301 101.478 31.2207 95.0199C35.9227 93.9947 46.4402 91.8676 50.8947 91.5601L66.8566 89.2535L58.3189 101.939ZM58.3189 101.939C51.8235 103.733 36.4937 106.783 27.1374 104.63C15.4421 101.939 10.8043 104.246 1.52411 89.2535C-0.0844604 81.5651 1.07866 65.8038 18.5997 64.2662C36.1207 62.7285 47.4301 65.6757 50.8947 67.3415V81.5651M50.8947 81.5651C38.1499 80.4119 10.8043 81.2576 3.38014 93.8666C-0.208196 102.836 -0.480416 121.161 27.1374 122.698C33.8192 122.442 48.0735 121.622 51.6371 120.392L50.8947 93.0978C37.9025 91.9445 10.5816 86.4857 5.23618 73.8767C2.39026 66.5727 1.44986 51.1958 20.4557 48.1205C27.5086 47.8642 43.4705 48.8124 50.8947 54.6556M50.8947 81.5651V54.6556M50.8947 81.5651C42.8519 79.643 25.1329 74.338 18.5997 68.4948C10.6806 62.0878 -0.925864 46.1983 16.0012 33.8969C21.3219 31.9748 35.4526 30.4371 49.4099 39.6632M50.8947 54.6556L49.4099 39.6632M50.8947 54.6556C41.9857 48.5049 23.7966 33.5893 22.3117 23.1331C21.693 16.726 23.3511 3.3738 34.9328 1.22104C37.9025 0.708482 45.2524 0.759738 50.8947 5.06526L49.4099 39.6632" stroke="#000A20"/>
</svg>
